<svg width="36" height="36" viewBox="0 0 26 28" fill="#121212" xmlns="http://www.w3.org/2000/svg">
<path d="M11.5556 24.395V14.805L2.88889 9.94V19.53L11.5556 24.395ZM14.4444 24.395L23.1111 19.53V9.94L14.4444 14.805V24.395ZM13 12.39L21.5583 7.595L13 2.8L4.44167 7.595L13 12.39ZM1.44444 21.98C0.987037 21.7233 0.631944 21.385 0.379167 20.965C0.126389 20.545 0 20.0783 0 19.565V8.435C0 7.92167 0.126389 7.455 0.379167 7.035C0.631944 6.615 0.987037 6.27667 1.44444 6.02L11.5556 0.385C12.013 0.128333 12.4944 0 13 0C13.5056 0 13.987 0.128333 14.4444 0.385L24.5556 6.02C25.013 6.27667 25.3681 6.615 25.6208 7.035C25.8736 7.455 26 7.92167 26 8.435V19.565C26 20.0783 25.8736 20.545 25.6208 20.965C25.3681 21.385 25.013 21.7233 24.5556 21.98L14.4444 27.615C13.987 27.8717 13.5056 28 13 28C12.4944 28 12.013 27.8717 11.5556 27.615L1.44444 21.98Z" fill="#121212"/>
</svg>
