<svg width="40" height="40" viewBox="0 0 40 40" fill="none" xmlns="http://www.w3.org/2000/svg">
<rect width="40" height="40" rx="8" fill="black"/>
<path d="M20.6022 7.50593C19.4295 7.58775 18.434 8.64389 19.2113 9.52343C19.5113 9.86298 22.2652 12.0346 23.4093 12.955H11.1365C9.19063 12.953 8.05881 15.7505 11.1365 15.6823L16.9593 15.7607L6.27518 24.0468C3.3345 26.3261 6.07541 29.1134 8.51154 27.0802L14.2218 22.3143C14.159 23.5259 14.562 25.4616 15.2704 26.7073C16.932 29.5743 19.8897 32.0555 24.8622 32.0316C30.4517 32.0043 35.2749 27.4934 34.9872 21.7136C34.8958 19.4309 33.2915 16.5359 30.0992 14.0507C27.7524 12.2234 22.1247 8.0098 21.7743 7.79093C21.4236 7.57352 21.0135 7.47368 20.6022 7.50593Z" fill="url(#paint0_linear_39_243)"/>
<path opacity="0.5" d="M18.9772 8.58975C18.8868 8.88895 18.9394 9.21428 19.2094 9.51942C19.467 9.8115 22.1347 11.9427 23.4092 12.9549H24.0904C22.9465 12.0348 19.509 9.33835 19.2094 8.99878C19.1032 8.88089 19.0239 8.74168 18.9772 8.58975ZM9.22818 14.2734C9.06629 15.0268 9.58151 15.7172 11.1366 15.6822L16.9547 15.7564L17.9544 15.0007H11.136C9.94783 15.0268 9.35285 14.8154 9.22818 14.2734ZM14.3272 21.7428L8.50911 26.5544C6.92859 27.8736 5.2299 27.16 5.02783 25.8765C4.78617 27.4657 6.72475 28.5658 8.50911 27.0763L14.2203 22.3092C14.2599 22.0331 14.3089 21.8236 14.3272 21.7428ZM34.9963 22.0533C34.8474 27.3001 30.2317 31.3405 24.6771 31.3678C19.405 31.3934 16.2303 28.2541 14.8732 25.2092C14.534 24.444 14.3668 23.6954 14.2268 22.9444C14.2876 24.4511 14.8507 26.07 15.542 27.195C17.142 29.7572 20.244 32.0678 24.6765 32.0458C30.4143 32.0179 35.1499 27.5405 34.9963 22.0533Z" fill="url(#paint1_linear_39_243)"/>
<path opacity="0.2" d="M29.1038 17.4877L20.446 26.1455L26.2258 31.9245C30.6985 31.3109 34.3981 27.8446 34.9231 23.3077L29.1038 17.4877Z" fill="url(#paint2_linear_39_243)"/>
<path d="M30.9067 21.6416C30.9611 23.2854 30.3545 24.8851 29.2084 26.0782C28.0485 27.2848 26.4444 27.9629 24.7617 27.9519C23.0808 27.9403 21.4819 27.2426 20.3278 26.0238C19.1892 24.8215 18.5873 23.2218 18.6405 21.5854C18.6931 19.9771 19.376 18.4629 20.5284 17.364C21.6675 16.278 23.186 15.675 24.76 15.6793C26.3357 15.6836 27.8588 16.2951 29.0043 17.3915C30.1648 18.5015 30.8529 20.0266 30.9067 21.6416Z" fill="url(#paint3_linear_39_243)"/>
<path d="M24.7699 18.4096C23.8753 18.4054 23.0153 18.7549 22.3773 19.3819C21.7393 20.009 21.3749 20.8628 21.3636 21.7573C21.3579 22.2092 21.4416 22.6578 21.61 23.0773C21.7784 23.4967 22.0281 23.8787 22.3447 24.2012C22.6613 24.5238 23.0386 24.7805 23.4548 24.9567C23.871 25.1329 24.318 25.225 24.7699 25.2278C25.221 25.2305 25.6681 25.1433 26.085 24.9711C26.5019 24.799 26.8803 24.5454 27.198 24.2252C27.5158 23.905 27.7664 23.5246 27.9353 23.1064C28.1042 22.6881 28.188 22.2404 28.1817 21.7894C28.1692 20.8913 27.8048 20.0341 27.1667 19.402C26.5287 18.77 25.668 18.4136 24.7699 18.4096Z" fill="url(#paint4_linear_39_243)"/>
<defs>
<linearGradient id="paint0_linear_39_243" x1="32.3046" y1="33.9852" x2="16.924" y2="11.1969" gradientUnits="userSpaceOnUse">
<stop stop-color="#D6602E"/>
<stop offset="1" stop-color="#FD8F49"/>
</linearGradient>
<linearGradient id="paint1_linear_39_243" x1="31.8595" y1="32.2001" x2="16.9967" y2="11.9345" gradientUnits="userSpaceOnUse">
<stop stop-color="#A3582D"/>
<stop offset="1" stop-color="#BA6D42"/>
</linearGradient>
<linearGradient id="paint2_linear_39_243" x1="24.7729" y1="21.8187" x2="31.591" y2="28.6368" gradientUnits="userSpaceOnUse">
<stop stop-color="#292929"/>
<stop offset="1" stop-opacity="0"/>
</linearGradient>
<linearGradient id="paint3_linear_39_243" x1="25.9697" y1="27.0799" x2="20.8384" y2="16.5911" gradientUnits="userSpaceOnUse">
<stop stop-color="#EEF1F2"/>
<stop offset="1" stop-color="#F9FAFB"/>
</linearGradient>
<linearGradient id="paint4_linear_39_243" x1="22.4411" y1="17.9545" x2="26.6685" y2="24.8805" gradientUnits="userSpaceOnUse">
<stop stop-color="#197CF1"/>
<stop offset="1" stop-color="#21C9FB"/>
</linearGradient>
</defs>
</svg>
