<svg width="20" height="36" viewBox="0 0 16 35" fill="#121212" xmlns="http://www.w3.org/2000/svg">
<path fill-rule="evenodd" clip-rule="evenodd" d="M12.4959 5.98993V5.51249C12.4959 2.6479 10.1684 0.260742 7.24414 0.260742C4.37954 0.260742 2.05206 2.6479 2.05206 5.51249H3.24564C3.24564 3.24469 5.03601 1.45432 7.24414 1.45432C9.45226 1.45432 11.2426 3.30437 11.2426 5.51249V5.93025C11.2426 6.16896 11.183 6.40768 11.1233 6.6464L12.1975 7.30286C12.3765 6.82543 12.4362 6.46736 12.4959 5.98993ZM11.6604 8.37709C11.183 9.09324 10.5862 9.63035 9.81034 10.0481V10.1078C9.81034 11.182 8.91516 12.0772 7.84094 12.0772C6.76671 12.0772 5.87153 11.182 5.87153 10.1078C5.87153 9.03356 6.76671 8.13837 7.84094 8.13837C8.43773 8.13837 9.03452 8.43677 9.39259 8.85452C9.9297 8.55613 10.4071 8.13837 10.7055 7.66094L7.96029 5.98993L0.739136 10.4062V34.6955H15.0621V10.4062L11.6604 8.37709ZM2.41015 13.2111H13.1524V14.4047H2.41015V13.2111ZM6.2296 33.0245H5.0957V31.8309H6.2296V33.0245ZM7.30383 33.0245V31.8309H8.49741V33.0245H7.30383ZM10.7055 33.0245H9.57163V31.8309H10.7055V33.0245ZM13.3911 24.7291C13.3911 27.7728 10.9442 30.2196 7.90062 30.2196C4.85699 30.2196 2.41015 27.7728 2.41015 24.7291V21.6258C2.41015 20.3726 2.8279 19.179 3.66341 18.1644L4.61827 18.9403C4.14084 19.5371 3.60373 20.4322 3.60373 21.6855V24.7888C3.60373 27.176 5.51346 29.0857 7.90062 29.0857C10.2878 29.0857 12.1975 27.176 12.1975 24.7888V21.6855C12.1975 19.2983 10.2878 17.3886 7.90062 17.3886C7.06511 17.3886 6.2296 17.6273 5.57313 18.1048L4.91667 16.9709C5.75217 16.3741 6.82639 16.0757 7.90062 16.0757C10.9442 16.0757 13.3911 18.5225 13.3911 21.5661V24.7291ZM7.90062 20.9097C7.48286 20.9097 7.12479 21.2678 7.12479 21.6855V24.7888C7.12479 25.2066 7.48286 25.5646 7.90062 25.5646C8.31837 25.5646 8.67644 25.2066 8.67644 24.7888H9.87002C9.87002 25.863 8.97484 26.7582 7.90062 26.7582C6.82639 26.7582 5.93121 25.863 5.93121 24.7888V21.6855C5.93121 20.6113 6.82639 19.7161 7.90062 19.7161C8.97484 19.7161 9.87002 20.6113 9.87002 21.6855V23.0581H8.67644V21.6855C8.67644 21.2678 8.31837 20.9097 7.90062 20.9097ZM7.90062 27.2953C9.27323 27.2953 10.4071 26.1614 10.4071 24.7888V21.6855C10.4071 20.3129 9.27323 19.179 7.90062 19.179C6.528 19.179 5.3941 20.3129 5.3941 21.6855V24.7888H4.20052V21.6855C4.20052 19.6564 5.93121 17.9854 7.90062 17.9854C9.87002 17.9854 11.6007 19.6564 11.6007 21.6855V24.7888C11.6007 26.8179 9.87002 28.4889 7.90062 28.4889C6.58768 28.4889 5.33442 27.7728 4.73763 26.6389L5.75217 26.0421C6.16992 26.8179 7.00543 27.2953 7.90062 27.2953ZM8.61678 10.1674C8.61678 10.5852 8.2587 10.9433 7.84095 10.9433C7.4232 10.9433 7.06512 10.5852 7.06512 10.1674C7.06512 9.74968 7.4232 9.3916 7.84095 9.3916C8.2587 9.3916 8.61678 9.74968 8.61678 10.1674Z" fill="#121212"/>
</svg>
