<svg width="40" height="40" viewBox="0 0 40 40" fill="none" xmlns="http://www.w3.org/2000/svg">
<rect width="40" height="40" rx="8" fill="black"/>
<path d="M40 6.25C40 2.79822 37.2018 0 33.75 0H6.25C2.79822 0 0 2.79822 0 6.25V33.75C0 37.2018 2.79822 40 6.25 40H33.75C37.2018 40 40 37.2018 40 33.75V6.25Z" fill="black"/>
<path d="M19.9792 20C19.9792 18.1591 21.4716 16.6666 23.3125 16.6666C25.1535 16.6666 26.6459 18.1591 26.6459 20C26.6459 21.841 25.1535 23.3334 23.3125 23.3334C21.4716 23.3334 19.9792 21.841 19.9792 20Z" fill="#1ABCFE"/>
<path d="M13.3125 26.6666C13.3125 24.8258 14.8049 23.3334 16.6459 23.3334H19.9793V26.6666C19.9793 28.5076 18.4869 30 16.6459 30C14.8049 30 13.3125 28.5076 13.3125 26.6666Z" fill="#0ACF83"/>
<path d="M19.9792 10V16.6666H23.3125C25.1535 16.6666 26.6459 15.1743 26.6459 13.3334C26.6459 11.4924 25.1535 10 23.3125 10H19.9792Z" fill="#FF7262"/>
<path d="M13.3125 13.3334C13.3125 15.1743 14.8049 16.6666 16.6459 16.6666H19.9793V10H16.6459C14.8049 10 13.3125 11.4924 13.3125 13.3334Z" fill="#F24E1E"/>
<path d="M13.3125 20C13.3125 21.841 14.8049 23.3334 16.6459 23.3334H19.9793V16.6666H16.6459C14.8049 16.6666 13.3125 18.1591 13.3125 20Z" fill="#A259FF"/>
</svg>
