<svg width="40" height="40" viewBox="0 0 40 40" fill="none" xmlns="http://www.w3.org/2000/svg">
<rect width="40" height="40" rx="8" fill="#330000"/>
<path d="M0 14.4761C0 9.40904 0 6.87547 0.986129 4.94009C1.85356 3.23767 3.23767 1.85356 4.94009 0.986129C6.87547 0 9.40904 0 14.4761 0H25.5239C30.591 0 33.1246 0 35.0599 0.986129C36.7623 1.85356 38.1464 3.23767 39.0139 4.94009C40 6.87547 40 9.40904 40 14.4761V25.5239C40 30.591 40 33.1246 39.0139 35.0599C38.1464 36.7623 36.7623 38.1464 35.0599 39.0139C33.1246 40 30.591 40 25.5239 40H14.4761C9.40904 40 6.87547 40 4.94009 39.0139C3.23767 38.1464 1.85356 36.7623 0.986129 35.0599C0 33.1246 0 30.591 0 25.5239V14.4761Z" fill="#330000"/>
<path d="M19.3837 25.1376H13.1852L11.9241 29.1557C11.8891 29.305 11.7517 29.4107 11.6021 29.4033H8.46259C8.28355 29.4033 8.22095 29.3024 8.27476 29.1006L13.6414 13.2483C13.6951 13.0832 13.7488 12.8952 13.8024 12.6842C13.8727 12.3169 13.9085 11.9437 13.9098 11.5696C13.8944 11.459 13.9915 11.3614 14.0975 11.3768H18.3641C18.4891 11.3768 18.5605 11.4227 18.5787 11.5144L24.67 29.1282C24.7235 29.3117 24.67 29.4034 24.509 29.4033H21.0205C20.8982 29.4173 20.7814 29.3334 20.7522 29.2107L19.3837 25.1376ZM14.1512 21.6699H18.391C17.6944 19.2896 16.9082 16.9406 16.2711 14.5419C15.5837 16.9447 14.8337 19.3379 14.1512 21.6699Z" fill="#FF9A00"/>
<path d="M28.2922 14.294C28.0185 14.3053 27.7456 14.2571 27.4912 14.1529C27.2369 14.0486 27.0069 13.8903 26.8163 13.6886C26.6263 13.478 26.4786 13.2311 26.3819 12.9619C26.2852 12.6927 26.2413 12.4066 26.2528 12.1199C26.243 11.836 26.2918 11.5533 26.3958 11.2901C26.4999 11.0269 26.6569 10.7891 26.8566 10.5924C27.0543 10.3977 27.2878 10.2452 27.5435 10.1436C27.799 10.042 28.0718 9.99347 28.3458 10.0007C28.9899 10.0007 29.4952 10.1979 29.8619 10.5924C30.047 10.7974 30.1909 11.0378 30.2853 11.2999C30.3796 11.562 30.4228 11.8407 30.4119 12.1199C30.4232 12.4076 30.3779 12.6949 30.2788 12.9643C30.1798 13.2337 30.0288 13.48 29.835 13.6886C29.6326 13.8933 29.3909 14.0527 29.1255 14.157C28.8599 14.2611 28.5762 14.3079 28.2922 14.294ZM26.4406 29.128V15.9729C26.4406 15.8077 26.5119 15.7251 26.6553 15.7251H29.9559C30.0988 15.7251 30.1703 15.8077 30.1705 15.9729V29.128C30.1705 29.3117 30.0989 29.4034 29.9559 29.4033H26.6822C26.5212 29.4033 26.4406 29.3116 26.4406 29.128Z" fill="#FF9A00"/>
</svg>
