<svg width="36" height="36" viewBox="0 0 36 35" fill="#121212" xmlns="http://www.w3.org/2000/svg">
<path fill-rule="evenodd" clip-rule="evenodd" d="M24.8988 4.96149H6.68659V0.852543C6.68659 0.526004 6.41848 0.260986 6.0908 0.260986C5.76192 0.260986 5.495 0.526004 5.495 0.852543V4.96149H1.35666C1.02778 4.96149 0.760864 5.22651 0.760864 5.55305C0.760864 5.87959 1.02778 6.1446 1.35666 6.1446H5.495V24.2285H1.35666C1.02778 24.2285 0.760864 24.4935 0.760864 24.82C0.760864 25.1454 1.02778 25.4116 1.35666 25.4116H5.495V29.5194C5.495 29.8459 5.76192 30.1109 6.0908 30.1109C6.41848 30.1109 6.68659 29.8459 6.68659 29.5194V25.4116H19.6737L21.7149 30.1819C21.7864 30.3499 21.9306 30.4753 22.1082 30.5226L26.1929 31.617C26.0189 31.8489 26.038 32.179 26.2501 32.3884L28.3985 34.5227C28.6309 34.7534 29.0087 34.7534 29.241 34.5227L35.0214 28.7823C35.2537 28.5516 35.2537 28.1777 35.0214 27.9458L32.873 25.8127C32.6609 25.6021 32.3284 25.5831 32.0948 25.7571L30.9926 21.7002C30.945 21.5251 30.8187 21.3807 30.6507 21.3097L26.0904 19.3872V6.1446H30.2288C30.5577 6.1446 30.8246 5.87959 30.8246 5.55305C30.8246 5.22651 30.5577 4.96149 30.2288 4.96149H26.0904V0.852543C26.0904 0.526004 25.8235 0.260986 25.4946 0.260986C25.1658 0.260986 24.8988 0.526004 24.8988 0.852543V4.96149ZM32.4511 27.0679L33.7571 28.3646L28.8192 33.2675L27.5132 31.9708L32.4511 27.0679ZM19.2495 18.0254L25.2754 24.0084C25.5304 23.8795 25.82 23.8061 26.1262 23.8061C27.1605 23.8061 28.0017 24.6402 28.0017 25.6683C28.0017 26.6965 27.1605 27.5305 26.1262 27.5305C25.0907 27.5305 24.2506 26.6965 24.2506 25.6683C24.2506 25.3761 24.3185 25.0992 24.4401 24.8532L18.4071 18.8631L18.2391 19.0299L22.698 29.4555L27.1581 30.6504L31.1213 26.7154L29.9179 22.287L19.4176 17.8586L19.2495 18.0254ZM26.1262 24.9892C26.5027 24.9892 26.8101 25.2933 26.8101 25.6683C26.8101 26.0434 26.5027 26.3474 26.1262 26.3474C25.7485 26.3474 25.4422 26.0434 25.4422 25.6683C25.4422 25.2933 25.7485 24.9892 26.1262 24.9892ZM21.902 17.6208L24.8988 18.8855V6.1446H6.68659V24.2285H19.1673L17.8923 21.2459C17.2167 21.4718 16.4934 21.5937 15.7415 21.5937C12.0201 21.5937 8.99951 18.5945 8.99951 14.9008C8.99951 11.206 12.0201 8.20677 15.7415 8.20677C19.4616 8.20677 22.4823 11.206 22.4823 14.9008C22.4823 15.8686 22.2749 16.7891 21.902 17.6208ZM20.8046 17.1582C21.1168 16.4696 21.2907 15.7053 21.2907 14.9008C21.2907 11.859 18.8039 9.38988 15.7415 9.38988C12.6779 9.38988 10.1911 11.859 10.1911 14.9008C10.1911 17.9414 12.6779 20.4106 15.7415 20.4106C16.3277 20.4106 16.8937 20.3207 17.424 20.1527L16.9843 19.1245C16.8902 18.9033 16.9402 18.6454 17.1118 18.475L18.8599 16.7406C19.0315 16.569 19.29 16.5193 19.5141 16.614L20.8046 17.1582Z" fill="#121212"/>
</svg>
