<svg width="26" height="36" viewBox="0 0 26 36" fill="#121212" xmlns="http://www.w3.org/2000/svg">
<path fill-rule="evenodd" clip-rule="evenodd" d="M24.7668 30.913V10.5322C24.7668 9.30914 24.5211 8.11567 24.0361 6.98506L22.9707 4.49875V0.391328C22.9707 0.175219 22.7956 0 22.5793 0H2.18746C1.97116 0 1.79614 0.175219 1.79614 0.391328V4.49875L0.730683 6.98506C0.245727 8.11567 0 9.30914 0 10.5322V30.913C0 31.1291 0.175028 31.3043 0.391328 31.3043H24.3755C24.5918 31.3043 24.7668 31.1291 24.7668 30.913ZM23.9841 30.5217H0.782656V10.5322C0.782656 9.41576 1.00698 8.32604 1.4499 7.29346L2.44325 4.97549H3.51164C3.72794 4.97549 3.90296 4.80027 3.90296 4.58416C3.90296 4.36805 3.72794 4.19283 3.51164 4.19283H2.57879V0.782656H22.188V4.19283H21.2552C21.0389 4.19283 20.8638 4.36805 20.8638 4.58416C20.8638 4.80027 21.0389 4.97549 21.2552 4.97549H22.3236L23.3169 7.29346C23.7598 8.32604 23.9841 9.41576 23.9841 10.5322V30.5217ZM13.5035 20.555C13.6288 20.4862 13.7064 20.3547 13.7064 20.212C13.7064 20.0693 13.6288 19.9378 13.5035 19.869L12.3941 19.2589C11.3531 18.6866 10.5013 17.8306 9.93147 16.7829L9.3246 15.6674C9.18703 15.4156 8.7743 15.4156 8.63672 15.6674L8.02985 16.7831C7.46044 17.8302 6.609 18.6864 5.56724 19.2589L4.45784 19.869C4.33249 19.9378 4.25491 20.0693 4.25491 20.212C4.25491 20.3547 4.33249 20.4862 4.45784 20.555L5.56724 21.1651C6.609 21.7378 7.46044 22.594 8.02985 23.6411L8.63672 24.7566C8.70551 24.8825 8.83735 24.9609 8.98066 24.9609C9.12397 24.9609 9.25581 24.8825 9.3246 24.7566L9.93108 23.6411C10.5013 22.5938 11.3527 21.7376 12.3941 21.1651L13.5035 20.555ZM9.24358 23.267L8.98066 23.7506L8.71774 23.2672C8.07648 22.0882 7.11765 21.1242 5.94405 20.4791L5.45832 20.212L5.94405 19.9449C7.11727 19.3 8.07648 18.336 8.71774 17.157L8.98066 16.6734L9.24397 17.157C9.88561 18.3364 10.8444 19.3004 12.0173 19.9449L12.503 20.212L12.0173 20.4791C10.8444 21.124 9.88561 22.088 9.24358 23.267ZM9.99067 13.1771C9.86533 13.1083 9.78775 12.9769 9.78775 12.8341C9.78775 12.6914 9.86533 12.5599 9.99067 12.4911L11.1005 11.8812C12.1418 11.3086 12.9933 10.4521 13.5627 9.40523L14.1699 8.28971C14.3068 8.03787 14.7202 8.03787 14.8571 8.28971L15.4639 9.40503C16.0341 10.4525 16.8859 11.3087 17.9269 11.8812L19.0363 12.4911C19.1617 12.5599 19.2392 12.6914 19.2392 12.8341C19.2392 12.9769 19.1617 13.1083 19.0363 13.1771L17.9269 13.7872C16.8855 14.3597 16.0341 15.2159 15.4639 16.2634L14.8571 17.3787C14.7886 17.5047 14.6568 17.583 14.5135 17.583C14.3702 17.583 14.2383 17.5047 14.1699 17.3787L13.5631 16.2634C12.9937 15.2163 12.1418 14.3601 11.1005 13.7872L9.99067 13.1771ZM14.2502 9.77917C13.6093 10.9579 12.6505 11.9219 11.4773 12.5672L10.9915 12.8341L11.4773 13.1013C12.6505 13.7465 13.6093 14.7107 14.2506 15.8895L14.5135 16.3729L14.7768 15.8893C15.4181 14.7101 16.3773 13.7461 17.5501 13.1013L18.0358 12.8341L17.5501 12.5672C16.3773 11.9225 15.4184 10.9583 14.7768 9.77917L14.5135 9.29555L14.2502 9.77917ZM11.8182 4.97541H12.9486C13.1649 4.97541 13.3399 4.80019 13.3399 4.58408C13.3399 4.36797 13.1649 4.19275 12.9486 4.19275H11.8182C11.6019 4.19275 11.4268 4.36797 11.4268 4.58408C11.4268 4.80019 11.6019 4.97541 11.8182 4.97541ZM6.65715 4.97541H5.52673C5.31043 4.97541 5.13541 4.80019 5.13541 4.58408C5.13541 4.36797 5.31043 4.19275 5.52673 4.19275H6.65715C6.87345 4.19275 7.04848 4.36797 7.04848 4.58408C7.04848 4.80019 6.87345 4.97541 6.65715 4.97541ZM4.99397 10.657H6.38235V12.0547C6.38235 12.2708 6.55738 12.446 6.77368 12.446C6.98998 12.446 7.16501 12.2708 7.16501 12.0547V10.657H8.553C8.7693 10.657 8.94433 10.4818 8.94433 10.2657C8.94433 10.0495 8.7693 9.87432 8.553 9.87432H7.16501V8.47678C7.16501 8.26067 6.98998 8.08545 6.77368 8.08545C6.55738 8.08545 6.38235 8.26067 6.38235 8.47678V9.87432H4.99397C4.77767 9.87432 4.60265 10.0495 4.60265 10.2657C4.60265 10.4818 4.77767 10.657 4.99397 10.657ZM9.80306 4.97541H8.67264C8.45634 4.97541 8.28131 4.80019 8.28131 4.58408C8.28131 4.36797 8.45634 4.19275 8.67264 4.19275H9.80306C10.0194 4.19275 10.1944 4.36797 10.1944 4.58408C10.1944 4.80019 10.0194 4.97541 9.80306 4.97541ZM14.9637 4.97541H16.0941C16.3104 4.97541 16.4854 4.80019 16.4854 4.58408C16.4854 4.36797 16.3104 4.19275 16.0941 4.19275H14.9637C14.7474 4.19275 14.5724 4.36797 14.5724 4.58408C14.5724 4.80019 14.7474 4.97541 14.9637 4.97541ZM19.24 4.97541H18.1096C17.8933 4.97541 17.7183 4.80019 17.7183 4.58408C17.7183 4.36797 17.8933 4.19275 18.1096 4.19275H19.24C19.4563 4.19275 19.6314 4.36797 19.6314 4.58408C19.6314 4.80019 19.4563 4.97541 19.24 4.97541ZM16.0158 25.1204H14.6278V23.7229C14.6278 23.5068 14.4528 23.3315 14.2365 23.3315C14.0202 23.3315 13.8452 23.5068 13.8452 23.7229V25.1204H12.4568C12.2405 25.1204 12.0655 25.2956 12.0655 25.5117C12.0655 25.7279 12.2405 25.9031 12.4568 25.9031H13.8452V27.3008C13.8452 27.5169 14.0202 27.6921 14.2365 27.6921C14.4528 27.6921 14.6278 27.5169 14.6278 27.3008V25.9031H16.0158C16.2321 25.9031 16.4071 25.7279 16.4071 25.5117C16.4071 25.2956 16.2321 25.1204 16.0158 25.1204ZM18.7321 19.3634H20.1205C20.3368 19.3634 20.5118 19.5386 20.5118 19.7547C20.5118 19.9708 20.3368 20.1461 20.1205 20.1461H18.7321V21.5436C18.7321 21.7597 18.5571 21.9349 18.3408 21.9349C18.1245 21.9349 17.9495 21.7597 17.9495 21.5436V20.1461H16.5615C16.3452 20.1461 16.1701 19.9708 16.1701 19.7547C16.1701 19.5386 16.3452 19.3634 16.5615 19.3634H17.9495V17.9657C17.9495 17.7496 18.1245 17.5743 18.3408 17.5743C18.5571 17.5743 18.7321 17.7496 18.7321 17.9657V19.3634Z" fill="#121212" font-weight="800"/>
</svg>
