<svg width="40" height="40" viewBox="0 0 40 40" fill="none" xmlns="http://www.w3.org/2000/svg">
<rect width="40" height="40" rx="8" fill="#001E36"/>
<path d="M0 14.4761C0 9.40904 0 6.87547 0.986129 4.94009C1.85356 3.23767 3.23767 1.85356 4.94009 0.986129C6.87547 0 9.40904 0 14.4761 0H25.5239C30.591 0 33.1246 0 35.0599 0.986129C36.7623 1.85356 38.1464 3.23767 39.0139 4.94009C40 6.87547 40 9.40904 40 14.4761V25.5239C40 30.591 40 33.1246 39.0139 35.0599C38.1464 36.7623 36.7623 38.1464 35.0599 39.0139C33.1246 40 30.591 40 25.5239 40H14.4761C9.40904 40 6.87547 40 4.94009 39.0139C3.23767 38.1464 1.85356 36.7623 0.986129 35.0599C0 33.1246 0 30.591 0 25.5239V14.4761Z" fill="#001E36"/>
<path d="M8.57153 29.7553V12.1656C8.57153 12.046 8.62153 11.9776 8.7382 11.9776C10.4605 11.9776 12.1821 11.875 13.9048 11.875C16.7004 11.875 19.7272 12.8309 20.7882 15.7553C21.0382 16.4733 21.1715 17.2083 21.1715 17.9776C21.1715 19.4477 20.8382 20.6613 20.1715 21.6186C18.3092 24.2926 15.0815 24.251 12.1882 24.251V29.7383C12.2108 29.9007 12.0724 29.9776 11.9382 29.9776H8.77153C8.63821 29.9776 8.57153 29.9091 8.57153 29.7553ZM12.2048 15.2767V21.0203C13.3521 21.1043 14.5525 21.1134 15.6548 20.7469C16.8718 20.3957 17.5382 19.3424 17.5382 18.0801C17.572 17.0046 16.986 15.9726 15.9882 15.5844C14.8992 15.1316 13.3804 15.1044 12.2048 15.2767Z" fill="#31A8FF"/>
<path d="M31.5667 19.4787C31.0624 19.2128 30.5252 19.0184 29.97 18.9007C29.2565 18.7328 26.4425 18.1448 26.4414 19.6163C26.4664 20.4377 27.7704 20.8401 28.3465 21.0748C30.3692 21.7693 32.6581 23.0106 32.6131 25.5058C32.675 28.6121 29.6652 29.854 27.0854 29.8543C25.7424 29.8681 24.3432 29.6601 23.1141 29.0836C22.9967 29.0214 22.9212 28.8887 22.9262 28.7533V25.781C22.913 25.6618 23.041 25.5577 23.141 25.6434C24.3452 26.3717 25.7727 26.7254 27.166 26.7443C27.781 26.7443 28.9998 26.6847 28.9907 25.781C28.9907 24.9138 27.5325 24.5151 26.9512 24.2948C26.1087 23.9941 25.3098 23.5774 24.5765 23.0564C23.5517 22.3254 22.9088 21.1534 22.9262 19.864C22.9202 16.9391 25.6907 15.6263 28.1857 15.6257C29.352 15.616 30.6045 15.7024 31.6902 16.1761C31.8464 16.222 31.8787 16.3866 31.8781 16.5338V19.3136C31.888 19.4861 31.6964 19.5448 31.5667 19.4787Z" fill="#31A8FF"/>
</svg>
